<svg width="32" height="32" viewBox="0 0 32 32" fill="none" xmlns="http://www.w3.org/2000/svg">
<path fill-rule="evenodd" clip-rule="evenodd" d="M30.0001 3.41016L25.2003 8.21973C27.7983 10.0867 29.7929 12.6734 30.9396 15.6602C31.019 15.8799 31.019 16.1201 30.9396 16.3398C29.7634 19.3822 27.7217 22.0137 25.0665 23.9082C22.4114 25.8026 19.2594 26.8774 16.0001 27C13.3642 26.9574 10.7837 26.2344 8.50987 24.9004L3.41026 30L2.0001 28.5898L28.5899 2L30.0001 3.41016ZM20.8898 12.5303C21.6914 13.6856 22.0622 15.0858 21.9366 16.4863C21.811 17.8869 21.1975 19.1991 20.2032 20.1934C19.2089 21.1877 17.8968 21.8012 16.4962 21.9268C15.0956 22.0523 13.6955 21.6815 12.5401 20.8799L10.0001 23.4199C11.844 24.4213 13.9022 24.9634 16.0001 25C21.3001 25 26.8998 21.0699 28.9298 16C27.8487 13.4355 26.0544 11.2351 23.7599 9.66016L20.8898 12.5303ZM14.0001 19.4404C14.6064 19.7904 15.2942 19.9745 15.9942 19.9756C16.6942 19.9766 17.3821 19.7944 17.9894 19.4463C18.5967 19.0981 19.1024 18.5959 19.4552 17.9912C19.8079 17.3866 19.9959 16.7 20.0001 16C19.9928 15.2957 19.7991 14.6057 19.4396 14L14.0001 19.4404Z" fill="#121212"/>
<path d="M16.0001 5C17.9077 5.02337 19.7926 5.4175 21.5499 6.16016L20.0001 7.71973C18.7156 7.26102 17.3639 7.01802 16.0001 7C10.7002 7 5.10047 10.9301 3.07042 16C3.87439 17.9446 5.10431 19.684 6.67003 21.0898L5.24034 22.5098C3.38077 20.8108 1.94792 18.6969 1.05968 16.3398C0.980352 16.1203 0.980352 15.8797 1.05968 15.6602C2.23581 12.6179 4.27761 9.98632 6.93272 8.0918C9.58791 6.19727 12.7406 5.12257 16.0001 5Z" fill="#121212"/>
<path d="M14.4171 10.2197C15.4294 9.94621 16.4958 9.94297 17.5099 10.21L15.7003 12.0303C14.742 12.0998 13.8406 12.512 13.1612 13.1914C12.4819 13.8708 12.0696 14.7722 12.0001 15.7305L10.1798 17.54C9.91274 16.5258 9.91591 15.4588 10.1896 14.4463C10.4632 13.434 10.9979 12.5111 11.7394 11.7695C12.481 11.0279 13.4046 10.4934 14.4171 10.2197Z" fill="#121212"/>
</svg>
